<svg xmlns="http://www.w3.org/2000/svg" viewBox="0 0 1200 560" role="img" aria-labelledby="chart-title chart-description">
  <title id="chart-title">Publication coverage by year</title>
  <desc id="chart-description">Stacked bars show cataloged LLM-related and other education papers by publication year.</desc>
  <style>
    :root { color-scheme: light dark; --background: #ffffff; --foreground: #202124; --muted: #5f6368; --grid: #e2e7ee; --frame: #c8d0da; --llm: #1a73e8; --other: #a9bfdc; --group: #5b8def; }
    @media (prefers-color-scheme: dark) { :root { --background: #202124; --foreground: #e8eaed; --muted: #aeb4bc; --grid: #3c4043; --frame: #5f6368; --llm: #8ab4f8; --other: #596b83; --group: #8ab4f8; } }
    text { fill: var(--foreground); font-family: -apple-system, BlinkMacSystemFont, 'Segoe UI', sans-serif; }
    .title { font-size: 26px; font-weight: 700; }
    .subtitle, .note, .legend, .axis-label { fill: var(--muted); }
    .subtitle { font-size: 15px; }
    .legend, .axis-label, .note { font-size: 13px; }
    .value { font-size: 13px; font-weight: 700; }
    .grid { stroke: var(--grid); stroke-width: 1; }
    .frame { fill: none; stroke: var(--frame); stroke-width: 1; }
  </style>
  <rect width="1200" height="560" rx="16" fill="var(--background)"/>
  <text class="title" x="54" y="46">Publication coverage by year</text>
  <text class="subtitle" x="54" y="73">Cataloged papers split by LLM relationship</text>
  <rect x="54" y="94" width="12" height="12" rx="2" fill="var(--llm)"/>
  <text class="legend" x="74" y="105">LLM-related</text>
  <rect x="180" y="94" width="12" height="12" rx="2" fill="var(--other)"/>
  <text class="legend" x="200" y="105">Other AI/education</text>
  <line class="grid" x1="78" y1="462.0" x2="1150" y2="462.0"/>
  <text class="axis-label" x="66" y="466.0" text-anchor="end">0</text>
  <line class="grid" x1="78" y1="382.0" x2="1150" y2="382.0"/>
  <text class="axis-label" x="66" y="386.0" text-anchor="end">20</text>
  <line class="grid" x1="78" y1="302.0" x2="1150" y2="302.0"/>
  <text class="axis-label" x="66" y="306.0" text-anchor="end">40</text>
  <line class="grid" x1="78" y1="222.0" x2="1150" y2="222.0"/>
  <text class="axis-label" x="66" y="226.0" text-anchor="end">60</text>
  <line class="grid" x1="78" y1="142.0" x2="1150" y2="142.0"/>
  <text class="axis-label" x="66" y="146.0" text-anchor="end">80</text>
  <g><title>2001: 1 papers (0 LLM-related, 1 other)</title>
    <rect x="93.3" y="458.0" width="46.0" height="4.0" fill="var(--other)"/>
    <rect x="93.3" y="458.0" width="46.0" height="0.0" rx="3" fill="var(--llm)"/>
  </g>
  <text class="value" x="116.3" y="450.0" text-anchor="middle">1</text>
  <text class="axis-label" x="116.3" y="486" text-anchor="middle">2001</text>
  <g><title>2006: 1 papers (0 LLM-related, 1 other)</title>
    <rect x="169.9" y="458.0" width="46.0" height="4.0" fill="var(--other)"/>
    <rect x="169.9" y="458.0" width="46.0" height="0.0" rx="3" fill="var(--llm)"/>
  </g>
  <text class="value" x="192.9" y="450.0" text-anchor="middle">1</text>
  <text class="axis-label" x="192.9" y="486" text-anchor="middle">2006</text>
  <g><title>2012: 1 papers (0 LLM-related, 1 other)</title>
    <rect x="246.4" y="458.0" width="46.0" height="4.0" fill="var(--other)"/>
    <rect x="246.4" y="458.0" width="46.0" height="0.0" rx="3" fill="var(--llm)"/>
  </g>
  <text class="value" x="269.4" y="450.0" text-anchor="middle">1</text>
  <text class="axis-label" x="269.4" y="486" text-anchor="middle">2012</text>
  <g><title>2015: 1 papers (0 LLM-related, 1 other)</title>
    <rect x="323.0" y="458.0" width="46.0" height="4.0" fill="var(--other)"/>
    <rect x="323.0" y="458.0" width="46.0" height="0.0" rx="3" fill="var(--llm)"/>
  </g>
  <text class="value" x="346.0" y="450.0" text-anchor="middle">1</text>
  <text class="axis-label" x="346.0" y="486" text-anchor="middle">2015</text>
  <g><title>2017: 3 papers (0 LLM-related, 3 other)</title>
    <rect x="399.6" y="450.0" width="46.0" height="12.0" fill="var(--other)"/>
    <rect x="399.6" y="450.0" width="46.0" height="0.0" rx="3" fill="var(--llm)"/>
  </g>
  <text class="value" x="422.6" y="442.0" text-anchor="middle">3</text>
  <text class="axis-label" x="422.6" y="486" text-anchor="middle">2017</text>
  <g><title>2018: 5 papers (0 LLM-related, 5 other)</title>
    <rect x="476.1" y="442.0" width="46.0" height="20.0" fill="var(--other)"/>
    <rect x="476.1" y="442.0" width="46.0" height="0.0" rx="3" fill="var(--llm)"/>
  </g>
  <text class="value" x="499.1" y="434.0" text-anchor="middle">5</text>
  <text class="axis-label" x="499.1" y="486" text-anchor="middle">2018</text>
  <g><title>2019: 8 papers (0 LLM-related, 8 other)</title>
    <rect x="552.7" y="430.0" width="46.0" height="32.0" fill="var(--other)"/>
    <rect x="552.7" y="430.0" width="46.0" height="0.0" rx="3" fill="var(--llm)"/>
  </g>
  <text class="value" x="575.7" y="422.0" text-anchor="middle">8</text>
  <text class="axis-label" x="575.7" y="486" text-anchor="middle">2019</text>
  <g><title>2020: 10 papers (0 LLM-related, 10 other)</title>
    <rect x="629.3" y="422.0" width="46.0" height="40.0" fill="var(--other)"/>
    <rect x="629.3" y="422.0" width="46.0" height="0.0" rx="3" fill="var(--llm)"/>
  </g>
  <text class="value" x="652.3" y="414.0" text-anchor="middle">10</text>
  <text class="axis-label" x="652.3" y="486" text-anchor="middle">2020</text>
  <g><title>2021: 13 papers (0 LLM-related, 13 other)</title>
    <rect x="705.9" y="410.0" width="46.0" height="52.0" fill="var(--other)"/>
    <rect x="705.9" y="410.0" width="46.0" height="0.0" rx="3" fill="var(--llm)"/>
  </g>
  <text class="value" x="728.9" y="402.0" text-anchor="middle">13</text>
  <text class="axis-label" x="728.9" y="486" text-anchor="middle">2021</text>
  <g><title>2022: 21 papers (1 LLM-related, 20 other)</title>
    <rect x="782.4" y="382.0" width="46.0" height="80.0" fill="var(--other)"/>
    <rect x="782.4" y="378.0" width="46.0" height="4.0" rx="3" fill="var(--llm)"/>
  </g>
  <text class="value" x="805.4" y="370.0" text-anchor="middle">21</text>
  <text class="axis-label" x="805.4" y="486" text-anchor="middle">2022</text>
  <g><title>2023: 32 papers (9 LLM-related, 23 other)</title>
    <rect x="859.0" y="370.0" width="46.0" height="92.0" fill="var(--other)"/>
    <rect x="859.0" y="334.0" width="46.0" height="36.0" rx="3" fill="var(--llm)"/>
  </g>
  <text class="value" x="882.0" y="326.0" text-anchor="middle">32</text>
  <text class="axis-label" x="882.0" y="486" text-anchor="middle">2023</text>
  <g><title>2024: 70 papers (43 LLM-related, 27 other)</title>
    <rect x="935.6" y="354.0" width="46.0" height="108.0" fill="var(--other)"/>
    <rect x="935.6" y="182.0" width="46.0" height="172.0" rx="3" fill="var(--llm)"/>
  </g>
  <text class="value" x="958.6" y="174.0" text-anchor="middle">70</text>
  <text class="axis-label" x="958.6" y="486" text-anchor="middle">2024</text>
  <g><title>2025: 60 papers (60 LLM-related, 0 other)</title>
    <rect x="1012.1" y="462.0" width="46.0" height="0.0" fill="var(--other)"/>
    <rect x="1012.1" y="222.0" width="46.0" height="240.0" rx="3" fill="var(--llm)"/>
  </g>
  <text class="value" x="1035.1" y="214.0" text-anchor="middle">60</text>
  <text class="axis-label" x="1035.1" y="486" text-anchor="middle">2025</text>
  <g><title>2026: 70 papers (70 LLM-related, 0 other)</title>
    <rect x="1088.7" y="462.0" width="46.0" height="0.0" fill="var(--other)"/>
    <rect x="1088.7" y="182.0" width="46.0" height="280.0" rx="3" fill="var(--llm)"/>
  </g>
  <text class="value" x="1111.7" y="174.0" text-anchor="middle">70</text>
  <text class="axis-label" x="1111.7" y="486" text-anchor="middle">2026</text>
  <rect class="frame" x="78" y="142" width="1072" height="320"/>
  <text class="note" x="54" y="530">Source: data/papers.csv · Counts describe catalog coverage, not total field output</text>
</svg>
